<?xml version="1.0" standalone="no"?>
<!DOCTYPE svg PUBLIC "-//W3C//DTD SVG 20010904//EN"
 "http://www.w3.org/TR/2001/REC-SVG-20010904/DTD/svg10.dtd">
<svg version="1.0" xmlns="http://www.w3.org/2000/svg"
 width="260.000000pt" height="260.000000pt" viewBox="0 0 260.000000 260.000000"
 preserveAspectRatio="xMidYMid meet">
<metadata>
Created by potrace 1.11, written by Peter Selinger 2001-2013
</metadata>
<g transform="translate(0.000000,260.000000) scale(0.100000,-0.100000)"
fill="#000000" stroke="none">
<path d="M90 1980 l0 -320 95 0 95 0 0 120 0 120 33 0 c32 0 32 0 77 -120 l45
-120 108 0 c59 0 107 2 107 4 0 2 -25 63 -56 136 -30 73 -54 133 -52 134 2 2
18 13 37 26 59 41 88 144 60 217 -17 46 -69 92 -123 108 -36 11 -101 15 -238
15 l-188 0 0 -320z m340 160 c51 -51 6 -100 -94 -100 l-56 0 0 60 0 60 65 0
c52 0 69 -4 85 -20z"/>
<path d="M1320 2220 l0 -80 -35 0 -35 0 0 -60 0 -60 35 0 35 0 0 -130 c0 -161
10 -192 72 -220 43 -19 129 -26 176 -14 20 6 22 12 22 74 0 63 -1 68 -20 63
-11 -3 -31 -2 -45 1 -25 6 -25 7 -25 116 l0 110 45 0 45 0 0 60 0 60 -45 0
-45 0 0 80 0 80 -90 0 -90 0 0 -80z"/>
<path d="M884 2136 c-178 -58 -228 -308 -86 -426 102 -84 281 -78 371 11 36
36 61 83 50 93 -2 2 -41 7 -86 10 -71 6 -83 5 -83 -8 0 -21 -39 -46 -72 -46
-35 0 -68 32 -68 65 l0 25 161 0 161 0 -7 58 c-12 100 -53 165 -129 204 -51
26 -155 33 -212 14z m136 -116 c11 -11 20 -31 20 -45 0 -24 -2 -25 -65 -25
-63 0 -65 1 -65 25 0 14 9 34 20 45 11 11 31 20 45 20 14 0 34 -9 45 -20z"/>
<path d="M1878 2134 c-15 -8 -34 -27 -42 -42 l-15 -27 -1 38 0 37 -80 0 -80 0
0 -240 0 -240 90 0 90 0 0 130 c0 73 5 140 11 153 13 29 48 47 89 47 l30 0 0
80 0 80 -32 0 c-18 -1 -45 -7 -60 -16z"/>
<path d="M2181 2138 c-148 -42 -220 -220 -145 -358 34 -62 75 -96 140 -116
133 -40 259 7 319 118 56 102 32 238 -53 308 -64 53 -175 73 -261 48z m123
-123 c33 -33 32 -191 -1 -227 -22 -24 -56 -23 -79 3 -28 31 -28 187 0 218 22
25 58 27 80 6z"/>
<path d="M95 1286 c-16 -7 -45 -28 -62 -46 l-33 -34 0 -567 0 -568 37 -36 36
-35 1214 0 c1344 0 1244 -5 1291 64 l22 32 0 547 0 546 -32 37 c-18 21 -51 45
-73 55 -38 18 -99 19 -1205 18 -940 0 -1171 -2 -1195 -13z m575 -406 l0 -80
-65 0 -65 0 0 -240 0 -240 -95 0 -95 0 0 240 0 240 -65 0 -65 0 0 80 0 80 225
0 225 0 0 -80z m800 -22 l0 -101 25 23 c38 36 128 40 175 8 71 -49 108 -147
96 -260 -14 -139 -87 -218 -201 -218 -53 0 -104 19 -135 50 l-21 21 -12 -30
c-11 -29 -14 -31 -64 -31 l-53 0 0 320 0 320 95 0 95 0 0 -102z m691 -60 c50
-15 114 -69 139 -119 11 -21 23 -66 27 -99 l6 -60 -162 0 c-175 0 -174 0 -149
-55 21 -47 99 -46 121 2 11 25 12 26 96 19 47 -3 86 -8 89 -10 2 -2 -6 -23
-18 -45 -24 -48 -86 -97 -144 -112 -59 -16 -173 -6 -222 19 -81 42 -134 128
-134 219 0 76 48 172 106 209 64 42 167 56 245 32z m-1249 -170 c3 -168 4
-173 24 -176 47 -7 54 17 54 189 l0 159 95 0 95 0 0 -240 0 -240 -85 0 -85 0
0 36 0 36 -25 -31 c-53 -62 -172 -69 -228 -12 l-32 31 -3 210 -3 210 95 0 96
0 2 -172z"/>
<path d="M1487 677 c-15 -11 -17 -27 -15 -122 l3 -110 29 -10 c24 -8 31 -6 47
14 29 35 28 192 -1 221 -23 23 -39 25 -63 7z"/>
<path d="M2044 692 c-15 -10 -34 -47 -34 -66 0 -13 13 -16 66 -16 l66 0 -7 28
c-13 51 -57 77 -91 54z"/>
</g>
</svg>
